<?xml version="1.0" encoding="UTF-8" standalone="no"?>
<!-- Created with Inkscape (http://www.inkscape.org/) -->

<svg
   width="312.61353mm"
   height="109.97808mm"
   viewBox="0 0 312.61353 109.97808"
   version="1.1"
   id="svg5"
   inkscape:version="1.1.2 (0a00cf5339, 2022-02-04)"
   sodipodi:docname="candidate-distribution.svg"
   xmlns:inkscape="http://www.inkscape.org/namespaces/inkscape"
   xmlns:sodipodi="http://sodipodi.sourceforge.net/DTD/sodipodi-0.dtd"
   xmlns="http://www.w3.org/2000/svg"
   xmlns:svg="http://www.w3.org/2000/svg">
  <sodipodi:namedview
     id="namedview7"
     pagecolor="#ffffff"
     bordercolor="#999999"
     borderopacity="1"
     inkscape:pageshadow="0"
     inkscape:pageopacity="0"
     inkscape:pagecheckerboard="0"
     inkscape:document-units="mm"
     showgrid="false"
     fit-margin-top="10"
     fit-margin-left="10"
     fit-margin-right="10"
     fit-margin-bottom="10"
     inkscape:zoom="1.2507576"
     inkscape:cx="721.16293"
     inkscape:cy="202.67717"
     inkscape:window-width="1920"
     inkscape:window-height="1010"
     inkscape:window-x="0"
     inkscape:window-y="20"
     inkscape:window-maximized="1"
     inkscape:current-layer="layer1"
     lock-margins="true"
     inkscape:snap-global="false" />
  <defs
     id="defs2">
    <clipPath
       clipPathUnits="userSpaceOnUse"
       id="clipPath842">
      <path
         d="M 22.781335,26.655677 H 850.70933 V 637.2 H 22.781335 Z"
         id="path840" />
    </clipPath>
    <clipPath
       clipPathUnits="userSpaceOnUse"
       id="clipPath852">
      <path
         d="M -8,-8 H 8 V 8 H -8 Z"
         id="path850" />
    </clipPath>
    <clipPath
       clipPathUnits="userSpaceOnUse"
       id="clipPath864">
      <path
         d="M -8,-8 H 8 V 8 H -8 Z"
         id="path862" />
    </clipPath>
    <clipPath
       clipPathUnits="userSpaceOnUse"
       id="clipPath876">
      <path
         d="M -8,-8 H 8 V 8 H -8 Z"
         id="path874" />
    </clipPath>
    <clipPath
       clipPathUnits="userSpaceOnUse"
       id="clipPath888">
      <path
         d="M -8,-8 H 8 V 8 H -8 Z"
         id="path886" />
    </clipPath>
    <clipPath
       clipPathUnits="userSpaceOnUse"
       id="clipPath900">
      <path
         d="M -8,-8 H 8 V 8 H -8 Z"
         id="path898" />
    </clipPath>
    <clipPath
       clipPathUnits="userSpaceOnUse"
       id="clipPath912">
      <path
         d="M -8,-8 H 8 V 8 H -8 Z"
         id="path910" />
    </clipPath>
    <clipPath
       clipPathUnits="userSpaceOnUse"
       id="clipPath924">
      <path
         d="M -8,-8 H 8 V 8 H -8 Z"
         id="path922" />
    </clipPath>
    <clipPath
       clipPathUnits="userSpaceOnUse"
       id="clipPath936">
      <path
         d="M -8,-8 H 8 V 8 H -8 Z"
         id="path934" />
    </clipPath>
    <clipPath
       clipPathUnits="userSpaceOnUse"
       id="clipPath948">
      <path
         d="M -8,-8 H 8 V 8 H -8 Z"
         id="path946" />
    </clipPath>
    <clipPath
       clipPathUnits="userSpaceOnUse"
       id="clipPath960">
      <path
         d="M -8,-8 H 8 V 8 H -8 Z"
         id="path958" />
    </clipPath>
    <clipPath
       clipPathUnits="userSpaceOnUse"
       id="clipPath970">
      <path
         d="M 22.781335,26.655677 H 850.70933 V 637.2 H 22.781335 Z"
         id="path968" />
    </clipPath>
    <clipPath
       clipPathUnits="userSpaceOnUse"
       id="clipPath980">
      <path
         d="M 22.781335,26.655677 H 850.70933 V 637.2 H 22.781335 Z"
         id="path978" />
    </clipPath>
    <clipPath
       clipPathUnits="userSpaceOnUse"
       id="clipPath1064">
      <path
         d="M 22.781335,26.655677 H 850.70933 V 637.2 H 22.781335 Z"
         id="path1062" />
    </clipPath>
    <clipPath
       clipPathUnits="userSpaceOnUse"
       id="clipPath1074">
      <path
         d="M 22.781335,26.655677 H 850.70933 V 637.2 H 22.781335 Z"
         id="path1072" />
    </clipPath>
    <clipPath
       clipPathUnits="userSpaceOnUse"
       id="clipPath1084">
      <path
         d="M 22.781335,26.655677 H 850.70933 V 637.2 H 22.781335 Z"
         id="path1082" />
    </clipPath>
    <clipPath
       clipPathUnits="userSpaceOnUse"
       id="clipPath1094">
      <path
         d="M 22.781335,26.655677 H 850.70933 V 637.2 H 22.781335 Z"
         id="path1092" />
    </clipPath>
    <clipPath
       clipPathUnits="userSpaceOnUse"
       id="clipPath1104">
      <path
         d="M 22.781335,26.655677 H 850.70933 V 637.2 H 22.781335 Z"
         id="path1102" />
    </clipPath>
  </defs>
  <g
     inkscape:label="Layer 1"
     inkscape:groupmode="layer"
     id="layer1"
     transform="translate(82.705099,-59.83813)">
    <path
       d="m -72.440171,159.55163 h 97.358196 l 0.0049,-45.15634 0.03894,0.0361 2.390144,2.16189 2.419353,2.08284 2.458293,2.01296 2.492372,1.93968 2.536179,1.87443 2.579994,1.8092 2.623803,1.74416 2.672482,1.68248 2.72603,1.62362 2.784443,1.56716 2.847728,1.5127 2.915878,1.45987 2.98403,1.40616 3.061914,1.356 3.144668,1.30664 3.232295,1.25792 3.32965,1.21135 3.431875,1.1648 3.54384,1.11964 3.665534,1.07546 3.796972,1.03183 3.938139,0.98848 4.093912,0.94623 4.259421,0.90355 4.444406,0.8622 4.64885,0.82146 4.87278,0.78084 5.12104,0.74059 5.39851,0.7008 5.70519,0.66083 6.05081,0.62118 6.44511,0.58201 6.89297,0.54281 7.40896,0.50381 8.00771,0.46485 8.71356,0.42609 9.55083,0.38725 10.56824,0.34863 11.82902,0.31018 13.42569,0.2718 1.66483,0.0288 v 0"
       style="fill:none;stroke:#1f77b4;stroke-width:0.529167;stroke-linecap:square;stroke-linejoin:round;stroke-miterlimit:10;stroke-dasharray:none;stroke-opacity:1"
       id="path1066" />
    <path
       d="m -72.440171,159.55103 32.269374,-0.0421 10.285892,-0.0899 6.975715,-0.13617 5.466665,-0.18277 4.585572,-0.2299 4.011157,-0.27815 3.607121,-0.32761 3.3101773,-0.3785 3.0813868,-0.43044 2.9110093,-0.48514 2.7795784,-0.54222 2.6822187,-0.60282 2.6092005,-0.66662 2.560518,-0.73502 2.536183,-0.80967 2.536179,-0.89226 2.560521,-0.98438 2.618938,-1.09151 2.716293,-1.21783 2.886671,-1.38132 3.18848,-1.6147 3.84078,-2.03718 11.785211,-6.31635 2.779575,-1.3592 2.429087,-1.10211 2.205164,-0.91578 2.054257,-0.76926 1.942296,-0.64435 1.854676,-0.53334 1.786523,-0.43288 1.737843,-0.34096 1.6989,-0.25391 1.674562,-0.17125 1.655089,-0.0907 1.65022,-0.012 1.650221,0.0666 1.65996,0.14556 1.679427,0.22626 1.708637,0.30972 1.74758,0.39691 1.801128,0.49003 1.869274,0.59045 1.961769,0.70281 2.078598,0.82903 2.239239,0.97883 2.472899,1.16848 2.837991,1.43045 3.577915,1.89643 12.11623,6.49497 3.1544,1.55798 2.8672,1.32969 2.70656,1.16948 2.61406,1.04453 2.56053,0.93903 2.54105,0.84857 2.54591,0.7676 2.57513,0.69448 2.62867,0.62745 2.70656,0.56495 2.80878,0.50561 2.94509,0.44974 3.12033,0.39631 3.34912,0.34524 3.64606,0.29579 4.0501,0.24834 4.61478,0.20236 5.44233,0.15757 6.78586,0.11442 9.31718,0.073 15.82558,0.0345 18.60028,0.005 v 0"
       style="fill:none;stroke:#ff7f0e;stroke-width:0.529167;stroke-linecap:square;stroke-linejoin:round;stroke-miterlimit:10;stroke-dasharray:none;stroke-opacity:1"
       id="path1076" />
    <path
       d="m -72.440171,159.55163 h 97.436082 l 0.04381,-19.13487 H 139.88345 l 0.0438,19.13487 h 79.71203 v 0"
       style="fill:none;stroke:#2ca02c;stroke-width:0.529167;stroke-linecap:square;stroke-linejoin:round;stroke-miterlimit:10;stroke-dasharray:none;stroke-opacity:1"
       id="path1096" />
    <text
       xml:space="preserve"
       style="font-size:5.64444px;line-height:100%;font-family:'Noto Sans CJK JP';-inkscape-font-specification:'Noto Sans CJK JP';text-decoration:none;text-decoration-line:none;text-decoration-color:#000000;letter-spacing:0px;word-spacing:0px;fill:#000000;stroke-width:0.124619;stop-color:#000000"
       x="143.01984"
       y="84.219315"
       id="text4965"><tspan
         sodipodi:role="line"
         id="tspan4963"
         style="stroke-width:0.124619"
         x="143.01984"
         y="84.219315">Or like this?</tspan></text>
    <text
       xml:space="preserve"
       style="font-size:5.64444px;line-height:100%;font-family:'Noto Sans CJK JP';-inkscape-font-specification:'Noto Sans CJK JP';text-decoration:none;text-decoration-line:none;text-decoration-color:#000000;letter-spacing:0px;word-spacing:0px;fill:#000000;stroke-width:0.124619;stop-color:#000000"
       x="15.342679"
       y="79.182541"
       id="text4965-3"><tspan
         sodipodi:role="line"
         id="tspan4963-6"
         style="stroke-width:0.124619"
         x="15.342679"
         y="79.182541">Distribution that look like this?</tspan></text>
    <path
       style="fill:none;stroke:#000000;stroke-width:0.264583px;stroke-linecap:butt;stroke-linejoin:miter;stroke-opacity:1"
       d="m 24.995911,159.55163 c 6.270114,-58.22668 61.915796,-65.182642 110.388649,-67.336599 15.13357,-0.672481 30.78706,-5.108747 44.83507,2.771425 20.59639,11.553454 34.65198,45.217014 39.4197,63.738114"
       id="path5224" />
    <path
       style="fill:none;stroke:#000000;stroke-width:0.264583px;stroke-linecap:butt;stroke-linejoin:miter;stroke-opacity:1"
       d="m 156.20682,86.842021 c -5.61289,2.598734 1.31958,4.767685 -0.3316,7.838781 -1.38229,2.570961 -3.97852,2.215377 -1.94575,4.946623"
       id="path5452" />
    <path
       style="fill:none;stroke:#000000;stroke-width:0.264583px;stroke-linecap:butt;stroke-linejoin:miter;stroke-opacity:1"
       d="m 163.35398,86.969611 c -5.38537,3.142916 -2.80702,3.951888 -0.15798,7.448266 1.64204,2.167258 -5.632,3.305231 -1.34429,4.781344"
       id="path5460" />
    <text
       xml:space="preserve"
       style="font-size:5.64444px;line-height:100%;font-family:'Noto Sans CJK JP';-inkscape-font-specification:'Noto Sans CJK JP';text-decoration:none;text-decoration-line:none;text-decoration-color:#000000;letter-spacing:0px;word-spacing:0px;fill:#000000;stroke-width:0.124619;stop-color:#000000"
       x="181.10077"
       y="91.282433"
       id="text6234"><tspan
         sodipodi:role="line"
         id="tspan6232"
         style="stroke-width:0.124619"
         x="181.10077"
         y="91.282433">very large value </tspan></text>
    <path
       style="fill:none;stroke:#000000;stroke-width:0.264583px;stroke-linecap:butt;stroke-linejoin:miter;stroke-opacity:1"
       d="m 24.855858,158.96268 c 0,0 5.659009,-24.4999 10.190747,-35.93287 8.628642,-21.76891 28.319687,-44.913847 54.413903,-31.67762 22.427672,11.37637 28.097292,40.45362 49.159082,53.03998 18.92476,11.3093 58.92866,14.37478 80.96972,14.37478"
       id="path6907"
       sodipodi:nodetypes="csssc" />
    <text
       xml:space="preserve"
       style="font-size:5.64444px;line-height:100%;font-family:'Noto Sans CJK JP';-inkscape-font-specification:'Noto Sans CJK JP';text-decoration:none;text-decoration-line:none;text-decoration-color:#000000;letter-spacing:0px;word-spacing:0px;fill:#000000;stroke-width:0.124619;stop-color:#000000"
       x="11.217975"
       y="115.51849"
       id="text9592"><tspan
         sodipodi:role="line"
         id="tspan9590"
         style="stroke-width:0.124619"
         x="11.217975"
         y="115.51849">exp</tspan></text>
    <text
       xml:space="preserve"
       style="font-size:5.64444px;line-height:100%;font-family:'Noto Sans CJK JP';-inkscape-font-specification:'Noto Sans CJK JP';text-decoration:none;text-decoration-line:none;text-decoration-color:#000000;letter-spacing:0px;word-spacing:0px;fill:#000000;stroke-width:0.124619;stop-color:#000000"
       x="72.352486"
       y="127.24078"
       id="text10534"><tspan
         sodipodi:role="line"
         id="tspan10532"
         style="stroke-width:0.124619"
         x="72.352486"
         y="127.24078">N</tspan></text>
    <text
       xml:space="preserve"
       style="font-size:5.64444px;line-height:100%;font-family:'Noto Sans CJK JP';-inkscape-font-specification:'Noto Sans CJK JP';text-decoration:none;text-decoration-line:none;text-decoration-color:#000000;letter-spacing:0px;word-spacing:0px;fill:#000000;stroke-width:0.124619;stop-color:#000000"
       x="141.47156"
       y="138.2527"
       id="text12518"><tspan
         sodipodi:role="line"
         id="tspan12516"
         style="stroke-width:0.124619"
         x="141.47156"
         y="138.2527">Uniform</tspan></text>
  </g>
</svg>
