<?xml version="1.0" encoding="UTF-8" standalone="no"?>
<svg
   xmlns:dc="http://purl.org/dc/elements/1.1/"
   xmlns:cc="http://creativecommons.org/ns#"
   xmlns:rdf="http://www.w3.org/1999/02/22-rdf-syntax-ns#"
   xmlns:svg="http://www.w3.org/2000/svg"
   xmlns="http://www.w3.org/2000/svg"
   xmlns:sodipodi="http://sodipodi.sourceforge.net/DTD/sodipodi-0.dtd"
   xmlns:inkscape="http://www.inkscape.org/namespaces/inkscape"
   width="237.14191"
   height="140"
   viewBox="0 0 237.14191 140"
   fill="none"
   version="1.1"
   id="svg64"
   sodipodi:docname="MIT-IBM.svg"
   inkscape:version="1.0.1 (3bc2e813f5, 2020-09-07)">
  <metadata
     id="metadata70">
    <rdf:RDF>
      <cc:Work
         rdf:about="">
        <dc:format>image/svg+xml</dc:format>
        <dc:type
           rdf:resource="http://purl.org/dc/dcmitype/StillImage" />
        <dc:title></dc:title>
      </cc:Work>
    </rdf:RDF>
  </metadata>
  <defs
     id="defs68" />
  <sodipodi:namedview
     pagecolor="#ffffff"
     bordercolor="#666666"
     borderopacity="1"
     objecttolerance="10"
     gridtolerance="10"
     guidetolerance="10"
     inkscape:pageopacity="0"
     inkscape:pageshadow="2"
     inkscape:window-width="1920"
     inkscape:window-height="1018"
     id="namedview66"
     showgrid="false"
     fit-margin-top="0"
     fit-margin-left="0"
     fit-margin-right="0"
     fit-margin-bottom="0"
     inkscape:zoom="1.4160706"
     inkscape:cx="91.483008"
     inkscape:cy="155.65788"
     inkscape:window-x="0"
     inkscape:window-y="20"
     inkscape:window-maximized="1"
     inkscape:current-layer="svg64" />
  <path
     d="m 103.48661,70.784613 h 2.90216 V 49.973936 h 0.17697 l 2.08814,4.1409 5.91052,10.759261 5.91051,-10.759261 2.08815,-4.1409 h 0.17696 v 20.810677 h 2.90217 v -24.70388 h -3.82237 L 114.70597,59.38829 H 114.529 l -7.07846,-13.307557 h -3.96393 z"
     fill="#000000"
     id="path2"
     style="stroke-width:0.498483" />
  <path
     d="m 140.95011,70.784613 v -2.477462 h -3.46845 V 48.558194 h 3.46845 v -2.477461 h -9.90985 v 2.477461 h 3.46845 v 19.748957 h -3.46845 v 2.477462 z"
     fill="#000000"
     id="path4"
     style="stroke-width:0.498483" />
  <path
     d="m 162.31161,48.699764 v -2.619031 h -18.68714 v 2.619031 h 7.85709 v 22.084849 h 2.97296 V 48.699764 Z"
     fill="#000000"
     id="path6"
     style="stroke-width:0.498483" />
  <path
     d="m 173.01604,61.547221 v -3.043739 h -9.2374 v 3.043739 z"
     fill="#000000"
     id="path8"
     style="stroke-width:0.498483" />
  <path
     d="m 186.43471,70.784613 v -2.477462 h -3.46845 V 48.558194 h 3.46845 v -2.477461 h -9.90985 v 2.477461 h 3.46845 v 19.748957 h -3.46845 v 2.477462 z"
     fill="#000000"
     id="path10"
     style="stroke-width:0.498483" />
  <path
     d="m 191.86369,70.784613 h 11.21936 c 3.6454,0 6.37061,-3.079131 6.37061,-7.149246 0,-4.105508 -3.07913,-5.627377 -4.84874,-5.733554 v -0.212354 c 1.62804,-0.247746 3.99933,-1.557261 3.99933,-5.238061 0,-3.857811 -2.51286,-6.370665 -6.58297,-6.370665 h -10.15759 z m 2.97295,-11.467108 h 7.32621 c 2.54824,0 4.1055,1.344908 4.1055,3.822369 v 1.203339 c 0,2.477461 -1.55726,3.822369 -4.1055,3.822369 h -7.32621 z m 0,-10.617741 h 6.83072 c 2.33589,0 3.75158,1.23878 3.75158,3.433103 v 1.203339 c 0,2.194323 -1.41569,3.433053 -3.75158,3.433053 h -6.83072 z"
     fill="#000000"
     id="path12"
     style="stroke-width:0.498483" />
  <path
     d="m 214.98633,70.784613 h 2.90217 V 49.973936 h 0.17696 l 2.08814,4.1409 5.91052,10.759261 5.91051,-10.759261 2.08815,-4.1409 h 0.17696 v 20.810677 h 2.90217 v -24.70388 h -3.82237 l -7.11385,13.307557 h -0.17696 l -7.07846,-13.307557 h -3.96394 z"
     fill="#000000"
     id="path14"
     style="stroke-width:0.498483" />
  <path
     d="m 110.21114,105.17995 3.29149,-12.31652 2.33589,-9.060431 h 0.0708 l 2.26511,9.060431 3.2207,12.31652 h 3.29149 l 6.33522,-24.703827 h -3.04374 l -2.79599,11.891815 -2.12354,9.202002 h -0.10618 l -2.3005,-9.202002 -3.00834,-11.891815 h -3.39766 l -3.11453,11.891815 -2.3005,9.237392 h -0.0708 l -2.05276,-9.237392 -2.65442,-11.891815 h -3.14991 l 6.01669,24.703827 z"
     fill="#000000"
     id="path16"
     style="stroke-width:0.498483" />
  <path
     d="m 149.24387,105.17995 v -2.47746 h -2.08814 V 92.651076 c 0,-3.857761 -2.61903,-6.158261 -7.00768,-6.158261 -3.29148,0 -5.48581,1.628046 -6.47679,3.574623 l 1.69883,1.592653 c 0.99098,-1.663438 2.44207,-2.725207 4.63639,-2.725207 2.90217,0 4.31786,1.415692 4.31786,3.99933 v 1.805008 h -3.61001 c -5.30885,0 -7.78631,1.911185 -7.78631,5.344238 0,3.39766 2.26511,5.5212 6.12287,5.5212 2.54824,0 4.49482,-1.16795 5.27345,-3.39766 h 0.17696 c 0.21236,1.69883 1.06177,2.97295 3.14992,2.97295 z m -9.73288,-1.98197 c -2.19432,0 -3.61002,-1.02637 -3.61002,-2.83138 v -0.74324 c 0,-1.769615 1.45109,-2.7606 4.67179,-2.7606 h 3.75158 v 3.008346 c 0,1.875794 -2.01736,3.326874 -4.81335,3.326874 z"
     fill="#000000"
     id="path18"
     style="stroke-width:0.498483" />
  <path
     d="m 160.85903,105.17995 v -2.47746 h -3.71619 V 89.394984 h 3.99933 v -2.477462 h -3.99933 v -5.061099 h -2.54825 v 3.397661 c 0,1.238731 -0.38931,1.663438 -1.59265,1.663438 h -1.69883 v 2.477462 h 3.00834 v 12.776626 c 0,1.76961 1.06177,3.00834 3.00835,3.00834 z"
     fill="#000000"
     id="path20"
     style="stroke-width:0.498483" />
  <path
     d="m 171.17863,105.60466 c 4.17629,0 6.75993,-2.15893 6.75993,-5.698161 0,-2.7606 -1.55726,-4.530215 -5.59199,-5.131885 l -1.41569,-0.212353 c -2.26511,-0.353924 -3.50384,-1.06177 -3.50384,-2.831385 0,-1.734223 1.23873,-2.831384 3.57463,-2.831384 2.33589,0 3.89315,1.097161 4.70717,2.229715 l 1.8758,-1.698831 c -1.48648,-1.8404 -3.43306,-2.937561 -6.37062,-2.937561 -3.71619,0 -6.51218,1.769615 -6.51218,5.37963 0,3.397662 2.51285,4.777962 5.87512,5.273454 l 1.45108,0.212354 c 2.40668,0.353923 3.18531,1.451084 3.18531,2.866777 0,1.87579 -1.41569,2.97295 -3.82237,2.97295 -2.3005,0 -3.99933,-1.02637 -5.41502,-2.79599 l -2.01736,1.62805 c 1.62804,2.15893 3.85776,3.57462 7.22003,3.57462 z"
     fill="#000000"
     id="path22"
     style="stroke-width:0.498483" />
  <path
     d="m 189.84134,105.60466 c 4.88414,0 8.24641,-3.75158 8.24641,-9.555923 0,-5.804338 -3.36227,-9.555922 -8.24641,-9.555922 -4.88414,0 -8.24641,3.751584 -8.24641,9.555922 0,5.804343 3.36227,9.555923 8.24641,9.555923 z m 0,-2.51285 c -3.04374,0 -5.20267,-1.8758 -5.20267,-5.733557 v -2.619031 c 0,-3.857761 2.15893,-5.733554 5.20267,-5.733554 3.04374,0 5.20267,1.875793 5.20267,5.733554 v 2.619031 c 0,3.857757 -2.15893,5.733557 -5.20267,5.733557 z"
     fill="#000000"
     id="path24"
     style="stroke-width:0.498483" />
  <path
     d="M 205.57596,105.17995 V 92.509507 c 0,-2.335892 2.19432,-3.468446 4.45943,-3.468446 2.72521,0 4.1409,1.663438 4.1409,4.91953 v 11.219359 h 2.83139 V 93.465099 c 0,-4.424038 -2.37129,-6.972284 -6.12287,-6.972284 -2.72521,0 -4.28247,1.344907 -5.16728,3.397661 h -0.14157 v -2.972954 h -2.83138 v 18.262428 z"
     fill="#000000"
     id="path26"
     style="stroke-width:0.498483" />
  <path
     d="m 122.06757,139.57529 -8.63573,-24.70383 h -3.78697 l -8.63573,24.70383 h 3.00835 l 2.47746,-7.29081 h 9.98063 l 2.47746,7.29081 z m -6.33523,-9.90984 h -8.52954 l 4.17629,-12.03339 h 0.17696 z"
     fill="#000000"
     id="path28"
     style="stroke-width:0.498483" />
  <path
     d="m 134.90151,139.57529 v -2.47746 h -3.46844 v -19.74891 h 3.46844 v -2.47746 h -9.90984 v 2.47746 h 3.46844 v 19.74891 h -3.46844 v 2.47746 z"
     fill="#000000"
     id="path30"
     style="stroke-width:0.498483" />
  <path
     d="m 162.17901,139.57529 v -2.61903 H 151.6675 v -22.0848 h -2.97296 v 24.70383 z"
     fill="#000000"
     id="path32"
     style="stroke-width:0.498483" />
  <path
     d="m 180.97233,139.57529 v -2.47746 h -2.08815 v -10.05141 c 0,-3.85777 -2.61903,-6.15827 -7.00768,-6.15827 -3.29148,0 -5.4858,1.62805 -6.47679,3.57463 l 1.69883,1.59265 c 0.99099,-1.66344 2.44207,-2.72521 4.6364,-2.72521 2.90216,0 4.31786,1.4157 4.31786,3.99933 v 1.80501 h -3.61002 c -5.30884,0 -7.78631,1.91119 -7.78631,5.34424 0,3.39766 2.26511,5.5212 6.12287,5.5212 2.54825,0 4.49483,-1.16795 5.27346,-3.39766 h 0.17696 c 0.21235,1.69883 1.06177,2.97295 3.14991,2.97295 z m -9.73289,-1.98197 c -2.19432,0 -3.61001,-1.02637 -3.61001,-2.83138 v -0.74324 c 0,-1.76962 1.45108,-2.7606 4.67178,-2.7606 h 3.75159 v 3.00835 c 0,1.87579 -2.01736,3.32687 -4.81336,3.32687 z"
     fill="#000000"
     id="path34"
     style="stroke-width:0.498483" />
  <path
     d="m 185.01353,139.57529 h 2.83138 v -2.97295 h 0.14157 c 1.09717,2.26511 2.83139,3.39766 5.34424,3.39766 4.56561,0 7.43239,-3.71619 7.43239,-9.55592 0,-5.83973 -2.86678,-9.55593 -7.43239,-9.55593 -2.51285,0 -4.38864,1.09717 -5.34424,3.39767 h -0.14157 v -10.90083 h -2.83138 z m 7.53856,-2.12354 c -2.58364,0 -4.70718,-1.3449 -4.70718,-3.71619 v -6.79532 c 0,-2.01736 2.12354,-3.50384 4.70718,-3.50384 3.18531,0 5.16728,2.19432 5.16728,5.45042 v 3.11452 c 0,3.25609 -1.98197,5.45041 -5.16728,5.45041 z"
     fill="#000000"
     id="path36"
     style="stroke-width:0.498483" />
  <path
     fill-rule="evenodd"
     clip-rule="evenodd"
     d="M 82.249726,82.249726 H 45.860453 v -1.993933 h 36.389273 z"
     fill="#be2fa8"
     id="path38"
     style="stroke-width:0.498483" />
  <path
     fill-rule="evenodd"
     clip-rule="evenodd"
     d="M 82.249726,70.784613 H 0 V 68.79068 h 82.249726 z"
     fill="#a03ab7"
     id="path40"
     style="stroke-width:0.498483" />
  <path
     fill-rule="evenodd"
     clip-rule="evenodd"
     d="M 82.249726,59.319499 H 0 v -1.993933 h 82.249726 z"
     fill="#8c41c0"
     id="path42"
     style="stroke-width:0.498483" />
  <path
     fill-rule="evenodd"
     clip-rule="evenodd"
     d="M 82.249726,47.854386 H 0 v -1.993933 h 82.249726 z"
     fill="#7748ca"
     id="path44"
     style="stroke-width:0.498483" />
  <path
     fill-rule="evenodd"
     clip-rule="evenodd"
     d="M 82.249726,36.389273 H 0 V 34.39534 h 82.249726 z"
     fill="#624fd5"
     id="path46"
     style="stroke-width:0.498483" />
  <path
     fill-rule="evenodd"
     clip-rule="evenodd"
     d="M 82.249726,24.924159 H 0 v -1.993932 h 82.249726 z"
     fill="#4f56de"
     id="path48"
     style="stroke-width:0.498483" />
  <path
     fill-rule="evenodd"
     clip-rule="evenodd"
     d="M 82.249726,13.459046 H 0 v -1.993933 h 82.249726 z"
     fill="#3b5de8"
     id="path50"
     style="stroke-width:0.498483" />
  <path
     fill-rule="evenodd"
     clip-rule="evenodd"
     d="M 82.249726,1.9939327 H 0 V 0 h 82.249726 z"
     fill="#0062ff"
     id="path52"
     style="stroke-width:0.498483" />
  <path
     fill-rule="evenodd"
     clip-rule="evenodd"
     d="M 45.860453,139.57529 V 91.720906 h 1.993933 v 47.854384 z"
     fill="#be2fa8"
     id="path54"
     style="stroke-width:0.498483" />
  <path
     fill-rule="evenodd"
     clip-rule="evenodd"
     d="M 34.39534,139.57529 V 80.255793 h 1.993933 v 59.319497 z"
     fill="#b62b86"
     id="path56"
     style="stroke-width:0.498483" />
  <path
     fill-rule="evenodd"
     clip-rule="evenodd"
     d="M 22.930227,139.57529 V 80.255793 h 1.993932 v 59.319497 z"
     fill="#b12870"
     id="path58"
     style="stroke-width:0.498483" />
  <path
     fill-rule="evenodd"
     clip-rule="evenodd"
     d="M 11.465113,139.57529 V 80.255793 h 1.993933 v 59.319497 z"
     fill="#ab2457"
     id="path60"
     style="stroke-width:0.498483" />
  <path
     fill-rule="evenodd"
     clip-rule="evenodd"
     d="M 0,139.57529 V 80.255793 h 1.9939327 v 59.319497 z"
     fill="#a31f34"
     id="path62"
     style="stroke-width:0.498483" />
</svg>
